# xmcd
#
# Track frame offsets: 
#        150
#        12096
#        26502
#        38335
#        54121
#        66239
#        78132
#        90385
#        108301
#        119527
#        133085
#        145578
#        160404
#        175627
#
# Disc length: 2477 seconds
#
# Revision: 0
# Processed by: cddbd v1.5.1PL0 Copyright (c) Steve Scherf et al.
# Submitted via: ExactAudioCopy v0.95a5
#
DISCID=a009ab0e
DTITLE=County Line Bluegrass - Gone Home
DYEAR=2004
DGENRE=Bluegrass
TTITLE0=Take Your Shoes Off Moses
TTITLE1=Satan's Jeweled Crown
TTITLE2=When The Roll Is Called Up Yonder
TTITLE3=Memories Of Mother
TTITLE4=Cry From The Cross
TTITLE5=Blessed Jesus Lead Me On
TTITLE6=Will He Wait A Little Bit Longer
TTITLE7=What A Friend We Have In Jesus
TTITLE8=Wings Of Angels
TTITLE9=Gone Home
TTITLE10=I'll Never Go Back
TTITLE11=Don't Let Them Take The Bible From Our Schoolroom
TTITLE12=God Sent An Angel
TTITLE13=That Home Far Away
EXTD=
EXTT0=
EXTT1=
EXTT2=
EXTT3=
EXTT4=
EXTT5=
EXTT6=
EXTT7=
EXTT8=
EXTT9=
EXTT10=
EXTT11=
EXTT12=
EXTT13=
PLAYORDER=
